<?xml version="1.0" encoding="UTF-8" standalone="no"?>
<!-- Created with Inkscape (http://www.inkscape.org/) -->

<svg
   width="27.538652mm"
   height="27.805128mm"
   viewBox="0 0 27.538653 27.805129"
   version="1.1"
   id="svg4100"
   xml:space="preserve"
   inkscape:export-filename="bulb.svg"
   inkscape:export-xdpi="96"
   inkscape:export-ydpi="96"
   sodipodi:docname="favicon.svg"
   inkscape:version="1.2.1 (9c6d41e, 2022-07-14)"
   xmlns:inkscape="http://www.inkscape.org/namespaces/inkscape"
   xmlns:sodipodi="http://sodipodi.sourceforge.net/DTD/sodipodi-0.dtd"
   xmlns="http://www.w3.org/2000/svg"
   xmlns:svg="http://www.w3.org/2000/svg"><sodipodi:namedview
     id="namedview4102"
     pagecolor="#ffffff"
     bordercolor="#000000"
     borderopacity="0.25"
     inkscape:showpageshadow="2"
     inkscape:pageopacity="0.0"
     inkscape:pagecheckerboard="0"
     inkscape:deskcolor="#d1d1d1"
     inkscape:document-units="mm"
     showgrid="false"
     inkscape:zoom="4.4387769"
     inkscape:cx="51.478145"
     inkscape:cy="52.491938"
     inkscape:window-width="1512"
     inkscape:window-height="916"
     inkscape:window-x="0"
     inkscape:window-y="38"
     inkscape:window-maximized="1"
     inkscape:current-layer="layer1" /><defs
     id="defs4097" /><g
     inkscape:label="Layer 1"
     inkscape:groupmode="layer"
     id="layer1"
     transform="translate(-135.87488,-196.97729)"><path
       style="fill:#ffffff;stroke-width:0.44853"
       d="m 34.62655,82.888426 c -0.69526,-0.69526 -0.69526,-3.162101 0,-3.857362 0.772609,-0.772608 34.481885,-0.772608 35.254493,0 0.695261,0.695261 0.695261,3.162102 0,3.857362 -0.772608,0.772609 -34.481884,0.772609 -35.254493,0 z"
       id="path328"
       transform="matrix(0.26458333,0,0,0.26458333,135.75621,196.86943)" /><path
       style="fill:#ffffff;stroke-width:0.44853"
       d="m 36.624748,89.782904 c -0.980351,-1.083276 -0.943376,-2.895535 0.07793,-3.819807 0.726398,-0.657381 2.423279,-0.742312 14.830992,-0.742312 8.800217,0 14.333392,0.172675 14.87832,0.464311 1.002213,0.536368 1.223949,3.485206 0.329337,4.379817 -0.396303,0.396303 -4.34028,0.538237 -14.956253,0.538237 -13.39831,0 -14.470516,-0.05801 -15.160329,-0.820246 z"
       id="path330"
       transform="matrix(0.26458333,0,0,0.26458333,135.75621,196.86943)" /><path
       style="fill:none;stroke-width:0.44853"
       d="m 44.952845,97.529938 c -1.073357,-0.751809 -1.30072,-2.381223 -0.53255,-3.816562 0.425738,-0.795499 0.99585,-0.867574 6.862516,-0.867574 4.378341,0 6.568121,0.169917 6.936441,0.538237 0.894611,0.894611 0.672876,3.843449 -0.329338,4.379817 -0.477165,0.255371 -3.358916,0.464311 -6.40389,0.464311 -4.284868,0 -5.761651,-0.15783 -6.533179,-0.698229 z"
       id="path332"
       transform="matrix(0.26458333,0,0,0.26458333,135.75621,196.86943)" /><path
       style="fill:#757575;fill-opacity:1;stroke-width:0.118674"
       d="m 148.45429,224.7343 c -3.094,-0.2275 -6.19142,-1.6677 -8.48289,-3.94428 -2.70985,-2.69224 -4.09652,-6.04916 -4.09652,-9.91709 0,-3.8283 1.37817,-7.19859 4.03039,-9.85628 2.65712,-2.6626 5.98069,-4.04304 9.72519,-4.03935 3.00461,0.003 5.75039,0.89505 8.08871,2.62798 1.04016,0.77087 2.6531,2.46362 3.35115,3.51698 3.62044,5.46325 2.99285,12.63608 -1.51791,17.34858 -1.62038,1.69286 -3.26746,2.78285 -5.30625,3.51154 -1.9164,0.68495 -3.64706,0.90963 -5.79187,0.75192 z m 2.70309,-1.9414 c 0.20209,-0.14155 0.26375,-0.30246 0.26375,-0.6883 0,-0.27697 -0.0641,-0.56766 -0.1424,-0.64598 -0.0979,-0.0979 -0.68907,-0.14241 -1.89031,-0.14241 -1.98568,0 -2.12086,0.0531 -2.12086,0.83246 0,0.73301 0.24041,0.82897 2.07678,0.82897 1.21016,0 1.60702,-0.0404 1.81304,-0.18474 z m 2.28901,-1.95556 c 0.17929,-0.0959 0.22954,-0.25093 0.22954,-0.70786 0,-0.45694 -0.0502,-0.61192 -0.22954,-0.70787 -0.14473,-0.0775 -1.65507,-0.12285 -4.08751,-0.12285 -3.85219,0 -3.85825,3.4e-4 -4.04271,0.26375 -0.10161,0.14507 -0.18474,0.4002 -0.18474,0.56697 0,0.16676 0.0831,0.42189 0.18474,0.56696 0.18446,0.26336 0.19052,0.26375 4.04271,0.26375 2.43244,0 3.94278,-0.0454 4.08751,-0.12285 z m 0.93741,-2.00547 c 0.16671,-0.3115 0.15527,-0.99598 -0.0196,-1.17081 -0.20451,-0.20451 -9.36059,-0.20451 -9.5651,0 -0.18445,0.18446 -0.18445,1.07349 0,1.25794 0.10593,0.10593 1.33613,0.14241 4.80211,0.14241 4.48545,0 4.66429,-0.009 4.78255,-0.22954 z m -6.59428,-1.79962 c 0.17414,-0.13698 0.45579,-0.5237 0.6259,-0.85939 0.37038,-0.73092 0.57006,-0.90024 1.06756,-0.90523 0.60215,-0.006 0.72805,0.0951 1.17319,0.94217 0.62776,1.19462 1.00916,1.30065 2.54627,0.70787 1.38275,-0.53324 1.64781,-0.98645 1.24487,-2.12851 -0.33619,-0.95288 -0.20377,-1.52366 0.41276,-1.77903 0.31483,-0.13041 0.45745,-0.11552 1.08497,0.11329 0.8047,0.29341 1.3677,0.25996 1.69403,-0.10062 0.10898,-0.12043 0.38845,-0.68572 0.62103,-1.25619 0.3966,-0.97278 0.41291,-1.06339 0.26261,-1.45829 -0.12182,-0.32008 -0.31668,-0.50497 -0.81242,-0.77088 -0.90012,-0.48282 -1.06751,-0.65625 -1.06751,-1.10601 0,-0.62362 0.10466,-0.75265 0.95979,-1.18329 0.44609,-0.22464 0.86655,-0.51212 0.93436,-0.63883 0.20782,-0.38831 0.13958,-0.92345 -0.24487,-1.92037 -0.28541,-0.74009 -0.45214,-1.0059 -0.74171,-1.18247 -0.47033,-0.28679 -0.70404,-0.2859 -1.55218,0.006 -0.60105,0.20679 -0.72728,0.21555 -1.0662,0.0739 -0.24183,-0.10104 -0.44359,-0.30345 -0.54391,-0.54565 -0.14239,-0.34375 -0.13003,-0.46996 0.11531,-1.17746 0.23856,-0.68796 0.25609,-0.84911 0.13296,-1.22218 -0.17652,-0.53489 -0.22821,-0.57582 -1.29917,-1.02888 -1.45209,-0.61429 -1.91162,-0.48535 -2.5125,0.70498 -0.19464,0.38558 -0.48457,0.78668 -0.64428,0.89133 -0.52701,0.34532 -1.17721,-0.0571 -1.67631,-1.03756 -0.51854,-1.01863 -0.98914,-1.13669 -2.40637,-0.60367 -1.49565,0.56251 -1.64324,0.8523 -1.23847,2.43175 0.20009,0.78074 0.19931,0.80489 -0.0359,1.11992 -0.37643,0.50419 -0.7884,0.5841 -1.49576,0.29013 -1.16662,-0.48483 -1.73103,-0.29424 -2.2211,0.74999 -0.59837,1.27497 -0.65287,1.55067 -0.40508,2.04911 0.15529,0.31238 0.40299,0.53398 0.86982,0.77818 0.78085,0.40847 1.06806,0.71706 1.06806,1.1476 0,0.46137 -0.23971,0.7261 -1.02618,1.13332 -0.51715,0.26777 -0.75005,0.47314 -0.9117,0.80396 -0.24553,0.50247 -0.2016,0.72902 0.40251,2.07541 0.25993,0.57932 0.42239,0.78281 0.74954,0.93881 0.39884,0.1902 0.45727,0.18743 1.29529,-0.0614 0.6659,-0.19769 0.95191,-0.23229 1.18559,-0.14345 0.57084,0.21704 0.70867,0.86328 0.38174,1.78989 -0.42059,1.19208 -0.14354,1.6919 1.24607,2.24802 1.05995,0.42419 1.40538,0.44569 1.82738,0.11374 z"
       id="path1420" /><path
       style="fill:#757575;fill-opacity:1;stroke-width:0.44853"
       d="m 48.13816,56.793099 c -4.058903,-1.327347 -7.057384,-4.041562 -8.946361,-8.098214 -1.592189,-3.419288 -1.501848,-8.092116 0.226027,-11.691123 5.316319,-11.073407 20.671314,-11.073407 26.072896,0 1.546676,3.170733 1.584713,8.916197 0.07926,11.972539 -1.38474,2.811275 -4.01722,5.448021 -6.909219,6.920413 -2.847663,1.44982 -7.593894,1.854136 -10.522603,0.896385 z"
       id="path1422"
       transform="matrix(0.26458333,0,0,0.26458333,135.75621,196.86943)" /></g></svg>
