<?xml version="1.0" encoding="UTF-8" standalone="no"?>
<svg
   xmlns:dc="http://purl.org/dc/elements/1.1/"
   xmlns:cc="http://creativecommons.org/ns#"
   xmlns:rdf="http://www.w3.org/1999/02/22-rdf-syntax-ns#"
   xmlns:svg="http://www.w3.org/2000/svg"
   xmlns="http://www.w3.org/2000/svg"
   xmlns:sodipodi="http://sodipodi.sourceforge.net/DTD/sodipodi-0.dtd"
   xmlns:inkscape="http://www.inkscape.org/namespaces/inkscape"
   sodipodi:docname="favicon.svg"
   inkscape:version="1.0 (4035a4f, 2020-05-01)"
   id="svg8"
   version="1.1"
   viewBox="0 0 63.208813 63.3116"
   height="63.3116mm"
   width="63.208813mm">
  <defs
     id="defs2" />
  <sodipodi:namedview
     inkscape:window-maximized="1"
     inkscape:window-y="0"
     inkscape:window-x="0"
     inkscape:window-height="878"
     inkscape:window-width="1440"
     fit-margin-bottom="0"
     fit-margin-right="0"
     fit-margin-left="0"
     fit-margin-top="0"
     showgrid="false"
     inkscape:document-rotation="0"
     inkscape:current-layer="layer1"
     inkscape:document-units="mm"
     inkscape:cy="281.92063"
     inkscape:cx="168.85844"
     inkscape:zoom="0.65805633"
     inkscape:pageshadow="2"
     inkscape:pageopacity="0.0"
     borderopacity="1.0"
     bordercolor="#666666"
     pagecolor="#ffffff"
     id="base" />
  <metadata
     id="metadata5">
    <rdf:RDF>
      <cc:Work
         rdf:about="">
        <dc:format>image/svg+xml</dc:format>
        <dc:type
           rdf:resource="http://purl.org/dc/dcmitype/StillImage" />
        <dc:title></dc:title>
      </cc:Work>
    </rdf:RDF>
  </metadata>
  <g
     transform="translate(-75.669208,-67.986132)"
     id="layer1"
     inkscape:groupmode="layer"
     inkscape:label="Layer 1">
    <path
       id="path851"
       d="m 108.19966,131.19646 -3.70417,0.10127 -0.79375,-0.12112 -0.79375,-0.12112 -2.11666,-0.4169 -2.116672,-0.4169 -1.85208,-0.66055 -1.85209,-0.66055 -2.3395,-1.20066 -2.3395,-1.20066 -1.62925,-1.19534 -1.62925,-1.19533 -1.81322,-1.74184 -1.81323,-1.74184 -1.5018,-1.98929 -1.50179,-1.98928 -1.21969,-2.37634 -1.21969,-2.37634 -0.66055,-1.85209 -0.66055,-1.85208 -0.48663,-2.24896 -0.48663,-2.24896 v -4.101038 -4.10104 l 0.48663,-2.24896 0.48663,-2.24896 0.66055,-1.852085 0.66055,-1.852084 1.20066,-2.339499 1.20066,-2.3395 1.19534,-1.62925 1.19533,-1.629251 1.74184,-1.813227 1.74184,-1.813227 1.98929,-1.501797 1.98928,-1.501796 2.37634,-1.219687 2.37634,-1.219687 1.85209,-0.660552 1.85208,-0.660552 2.248962,-0.486628 2.24896,-0.486628 h 4.10104 4.10104 l 2.24896,0.486628 2.24896,0.486628 1.85208,0.660552 1.85208,0.660552 2.37635,1.219687 2.37634,1.219687 1.98928,1.501796 1.98928,1.501797 1.74184,1.813227 1.74185,1.813227 1.19533,1.629251 1.19534,1.62925 1.20066,2.3395 1.20065,2.339499 0.66055,1.852084 0.66056,1.852085 0.48662,2.24896 0.48663,2.24896 v 4.10104 4.101038 l -0.48663,2.24896 -0.48662,2.24896 -0.66056,1.85208 -0.66055,1.85209 -1.20065,2.3395 -1.20066,2.3395 -1.19534,1.62925 -1.19533,1.62925 -1.74185,1.81322 -1.74184,1.81323 -1.98437,1.49711 -1.98438,1.49712 -2.17212,1.12926 -2.17213,1.12927 -1.79662,0.678 -1.79663,0.678 -2.24895,0.51441 -2.24896,0.51441 z M 89.010068,110.70304 h 1.53456 l 1.02203,-2.91042 1.02203,-2.91041 h 4.78774 4.787752 l 1.03336,2.84427 1.03337,2.84427 1.55512,0.0804 1.55511,0.0804 -0.18778,-0.47723 -0.18779,-0.47723 -4.1231,-10.781778 -4.123092,-10.78177 -1.34528,0.0035 -1.34527,0.0035 -2.57899,6.80949 -2.579,6.809488 -1.69766,4.43177 -1.69767,4.43177 z m 8.51806,-8.20208 h -3.66007 l -0.13876,-0.13877 -0.13877,-0.13877 1.87168,-5.150048 1.87169,-5.15005 0.17706,0.32788 0.17706,0.32788 1.75009,4.8358 1.750092,4.835788 v 0.12515 0.12514 z m 17.731782,8.20208 h 4.5467 l 1.52846,-0.42886 1.52846,-0.42887 1.03744,-0.88801 1.03744,-0.88801 0.45743,-1.13052 0.45744,-1.13052 0.0194,-1.60101 0.0195,-1.60102 -0.64418,-1.16687 -0.64417,-1.16687 -0.87258,-0.587728 -0.87257,-0.58773 -0.31805,-0.14207 -0.31805,-0.14207 0.52353,-0.33877 0.52352,-0.33878 0.86266,-0.90846 0.86266,-0.90845 0.1695,-0.90351 0.1695,-0.90352 -0.15147,-1.46763 -0.15147,-1.46762 -0.76641,-0.95374 -0.7664,-0.953738 -1.16698,-0.661459 -1.16697,-0.661458 -5.22552,-0.09007 -5.22552,-0.09007 v 11.268725 11.268708 z m 1.34027,-2.38706 -2.97656,0.006 v -4.10104 -4.10104 l 3.10885,0.006 3.10886,0.006 1.10693,0.50256 1.10693,0.50257 0.41442,0.8014 0.41443,0.8014 -0.001,1.4022 -10e-4,1.40221 -0.53365,0.87527 -0.53364,0.87528 -1.11901,0.50798 -1.11902,0.50797 -2.97656,0.006 z m -0.13229,-10.583328 -2.84427,0.006 v -3.57188 -3.57188 h 2.91891 2.91892 l 0.8514,0.36036 0.85139,0.36036 0.50161,0.563 0.5016,0.563 0.12316,1.28179 0.12316,1.28178 -0.44387,0.85836 -0.44387,0.85836 -1.10694,0.50256 -1.10693,0.50257 -2.84427,0.006 z"
       style="fill:#e25241;fill-opacity:1;stroke-width:0.264583" />
  </g>
</svg>
